<?xml version="1.0" encoding="utf-8"?>
<!-- Generator: Adobe Illustrator 18.0.0, SVG Export Plug-In . SVG Version: 6.00 Build 0)  -->
<!DOCTYPE svg PUBLIC "-//W3C//DTD SVG 1.1//EN" "http://www.w3.org/Graphics/SVG/1.1/DTD/svg11.dtd">
<svg version="1.1" id="Layer_1" xmlns="http://www.w3.org/2000/svg" xmlns:xlink="http://www.w3.org/1999/xlink" x="0px" y="0px"
	 viewBox="0 0 600 600" enable-background="new 0 0 600 600" xml:space="preserve">
<g>
	<g>
		<path d="M300.3,558.5c-17,0-34.1,0-51.1,0c-33.2,0.1-66.4,0.2-99.7,0.3c-32.2,0.1-64.4,0-96.7,0.3c-24.5,0.2-35.9-25.8-25.9-43.7
			c6-10.6,11.2-21.6,16.8-32.4c4.9-9.5,9.7-18.9,14.6-28.4c4.8-9.3,9.6-18.7,14.4-28c4.9-9.6,9.9-19.2,14.8-28.9
			c6.5-12.6,13-25.3,19.5-37.9c11.1-21.6,22.2-43.2,33.3-64.8c9.4-18.3,18.8-36.6,28.2-54.9c10.2-19.8,20.4-39.7,30.6-59.5
			c9.4-18.2,18.7-36.4,28.1-54.7c8-15.5,16-31,23.9-46.5c6.4-12.5,12.8-25,19.2-37.5c5.3-10.2,13.8-15.5,25.3-15.8
			c1.5,0,3.1-0.2,4.6-0.2c11.8-0.5,21,4.3,26.6,14.7c10.2,19,20,38.2,30,57.4c8.5,16.3,17,32.6,25.5,48.9
			c9.6,18.4,19.2,36.8,28.8,55.2c8.5,16.4,17.1,32.7,25.6,49c9.5,18.1,18.9,36.3,28.3,54.4c9.2,17.6,18.3,35.1,27.5,52.7
			c8.1,15.5,16.1,30.9,24.2,46.4c9.3,17.8,18.6,35.6,27.9,53.4c8.3,15.9,16.5,31.7,24.8,47.6c1.4,2.7,2.8,5.3,4.2,8
			c3,5.6,3.8,11.7,3.1,18c-1.3,12-7.5,20.3-18.8,24.7c-3.4,1.3-7,1.6-10.6,1.6c-16.5,0-33,0-49.5,0c-28.5,0.1-57,0.2-85.5,0.2
			c-37.4,0-74.8,0-112.2,0C300.3,558.4,300.3,558.5,300.3,558.5z M504.7,502.2c-68.5-131.5-136.9-262.6-205.4-394.1
			c-67.7,131.7-135.3,263.2-203,394.9C232.5,502.8,368.4,502.5,504.7,502.2z"/>
		<path d="M253,290c-0.2-10.6,0.4-23.5,1.7-36.3c1.6-15.8,4.4-31.4,9.3-46.5c2.6-8,5.7-15.7,10.3-22.8c4.1-6.2,8.9-11.6,16.2-14.3
			c8.5-3.1,16.1-1.2,22.9,4.4c4.9,4,8.4,9.2,11.3,14.9c6.1,12,9.5,24.8,12,37.9c3.8,19.8,5.1,39.8,4.9,59.9
			c-0.2,16.4-1.5,32.8-4.3,49c-2.3,13.1-5.3,26-10.4,38.3c-2.9,7-6.4,13.7-11.5,19.3c-4,4.4-8.7,7.7-14.6,9
			c-2.2,0.5-4.4,0.5-6.6-0.1c-0.3-0.1-0.5-0.2-0.8-0.2c-6.6,0-11.3-3.7-15.5-8.2c-5.9-6.3-9.6-14.1-12.6-22.1
			c-4.2-11.1-6.8-22.6-8.6-34.3C254.3,322.9,253.1,307.6,253,290z"/>
		<path d="M297.4,489.7c-17.1,0-30.9-13.8-30.9-30.8c0-17.1,13.8-31,30.9-31c17.1,0,30.8,13.8,30.8,30.9
			C328.2,475.9,314.4,489.7,297.4,489.7z"/>
	</g>
</g>
</svg>
