<?xml version="1.0" encoding="utf-8"?>
<!-- Generator: Adobe Illustrator 18.0.0, SVG Export Plug-In . SVG Version: 6.00 Build 0)  -->
<!DOCTYPE svg PUBLIC "-//W3C//DTD SVG 1.1//EN" "http://www.w3.org/Graphics/SVG/1.1/DTD/svg11.dtd">
<svg version="1.1" id="Layer_1" xmlns="http://www.w3.org/2000/svg" xmlns:xlink="http://www.w3.org/1999/xlink" x="0px" y="0px"
	 viewBox="0 0 600 600" enable-background="new 0 0 600 600" xml:space="preserve">
<g>
	<g>
		<path d="M300.2,547c-7.1-0.2-14.6-0.1-21.9-0.6c-6.7-0.4-13.4-1.2-20.1-2c-13-1.6-25.8-4.5-38.3-8.4
			c-14.4-4.4-28.4-10.1-41.8-17.1c-18.5-9.6-35.4-21.3-51-35.1c-12.2-10.8-23.1-22.7-33-35.7c-8.3-11-15.7-22.6-22-34.9
			C64.7,399,58.6,384,54,368.4c-4.5-15.2-7.5-30.6-8.9-46.3c-1.1-11.4-1.4-22.9-0.9-34.3c0.8-16.7,3.1-33.2,7.2-49.4
			c4.7-18.9,11.6-37,20.5-54.3c7.6-14.7,16.6-28.5,27-41.4c9.6-11.9,20.1-22.8,31.7-32.7c8.4-7.2,17.1-14,26.5-19.8
			c7.4-4.5,14.8-9,22.5-13c10.8-5.7,22.1-10.3,33.7-14.2c11.1-3.7,22.4-6.7,34-8.8c8.9-1.6,17.9-2.8,27-3.5
			c5.6-0.4,11.1-1.2,16.7-1.7c8.4-0.6,16.7-0.4,25,0.4c8.4,0.8,16.7,1.6,25.1,2.7c6,0.8,12,1.9,18,3.1c14.8,2.9,29.1,7.4,43.1,13.1
			c10.3,4.2,20.2,9,29.8,14.6c14,8.1,27.1,17.4,39.4,28c12.7,11,24.1,23.1,34.3,36.3c11.6,15.1,21.3,31.3,29.2,48.6
			c6,13.3,10.9,27,14.5,41.2c2.8,10.8,4.8,21.7,6.1,32.8c1.7,14.8,2.1,29.6,1.2,44.5c-1,16.4-3.7,32.6-8,48.5
			c-4.1,15.4-9.7,30.3-16.7,44.6c-6,12.4-13,24.1-21,35.3c-8.2,11.5-17.3,22.2-27.3,32.2c-11.8,11.7-24.7,22.1-38.6,31.3
			c-11.9,7.9-24.5,14.6-37.6,20.3c-9.7,4.2-19.6,7.7-29.7,10.7c-10.7,3.1-21.5,5.6-32.4,7.1c-8.2,1.1-16.4,1.8-24.7,2.4
			C314,546.9,307.2,546.9,300.2,547z M300.6,477.4c0-0.1,0-0.3,0-0.4c5.4,0,10.8,0.2,16.2-0.1c5.8-0.3,11.6-1,17.3-1.8
			c16.3-2.2,32-6.8,47-13.5c25.3-11.3,47-27.5,64.6-48.9c23.6-28.6,37.2-61.4,40.6-98.3c1.8-19.6,0.4-38.9-4.3-58
			c-5.1-21-13.8-40.5-26-58.4c-13.5-19.9-30.4-36.3-50.6-49.4c-18.5-12-38.6-20.2-60.1-24.7c-13-2.7-26.1-4-39.4-4.3
			c-14.2-0.3-28.3,0.6-42.4,2.8c-8.8,1.4-17.4,3.5-25.8,6.2c-11.1,3.6-21.7,8.2-31.8,13.8c-15.5,8.6-29.4,19.2-41.7,32
			c-13.9,14.3-25,30.6-33.4,48.6c-9,19.2-14.3,39.5-16.2,60.6c-1,11.3-0.8,22.6,0.4,33.9c1.9,17.8,6.4,35,13.5,51.5
			c11.3,26.1,27.8,48.3,49.6,66.5c21.8,18.2,46.7,30.5,74.3,37c9.8,2.3,19.7,3.7,29.8,4.3C288.3,477.1,294.4,477.2,300.6,477.4z"/>
		<path d="M175.7,401c-0.5-3.4,0.5-6.7,1.6-10.1c1.1-3.4,2.3-6.8,3.8-10c1.7-3.6,3.8-7.1,5.8-10.6c1.1-1.9,2.2-3.7,3.4-5.5
			c0.9-1.3,2-2.6,3-3.8c2.8-3.2,5.6-6.5,8.5-9.6c1.5-1.7,3.2-3.3,5-4.7c4.1-3.4,8.2-6.8,12.4-10.1c1.9-1.5,4.1-2.6,6.1-3.9
			c2.7-1.7,5.3-3.4,8.1-4.9c2.1-1.2,4.4-2.2,6.7-3.3c2.7-1.3,5.5-2.6,8.2-3.8c2.7-1.1,5.5-2.1,8.2-3.1c1.6-0.6,3.1-1.2,4.7-1.7
			c3.2-1,6.4-2,9.7-2.8c3.5-0.9,7.1-1.7,10.7-2.3c3.2-0.5,6.5-0.8,9.7-1.1c3.4-0.3,6.8-0.9,10.2-0.8c4.3,0.1,8.7,0.7,12.9,1.3
			c4.3,0.6,8.6,1.3,12.9,2.2c3.2,0.7,6.4,1.7,9.6,2.6c1.7,0.4,3.4,0.7,5,1.2c2.5,0.9,5,1.9,7.5,2.9c1.3,0.5,2.6,1.1,3.9,1.6
			c2,0.8,4.2,1.4,6.1,2.4c4,2,7.9,4.1,11.7,6.3c3.1,1.8,6.2,3.8,9.1,5.8c3.3,2.3,6.7,4.5,9.8,7.2c3.8,3.3,7.4,6.8,10.9,10.4
			c2.6,2.6,4.8,5.6,7.2,8.4c1.2,1.5,2.3,3.1,3.4,4.7c1.4,2.1,2.9,4.1,4.2,6.2c1.1,1.8,2,3.7,2.9,5.6c1.1,2.3,2.2,4.7,3.1,7.1
			c1.1,2.8,2,5.6,2.9,8.4c1.1,3.5,1.2,7.1,0.7,10.7c-0.2,1.7-0.6,3.3-1.1,4.9c-0.8,3-2.4,5.5-4.5,7.7c-2,2-4.1,4-6.6,5.4
			c-2.9,1.6-6.1,2.9-9.6,2.9c-3.5,0.1-7.1,0-10.4-1.2c-2.2-0.8-4.2-2.1-6.1-3.5c-2.5-1.7-4.5-3.9-6.1-6.5c-1.3-2.1-2.3-4.3-2.9-6.8
			c-0.7-2.5-2-4.9-2.9-7.4c-1.4-3.7-3.8-6.8-6.2-9.9c-2.1-2.7-4.9-5-7.4-7.4c-1.2-1.2-2.5-2.4-3.9-3.4c-2.7-1.9-5.4-3.8-8.1-5.6
			c-1.3-0.9-2.6-1.9-4.1-2.6c-2.9-1.5-5.9-2.8-8.9-4.2c-2.2-1-4.4-2-6.6-2.9c-1.8-0.7-3.6-1.2-5.4-1.7c-1.6-0.5-3.1-0.9-4.7-1.3
			c-2.8-0.7-5.5-1.4-8.3-1.9c-2.1-0.4-4.3-0.7-6.5-0.9c-2-0.2-4-0.4-5.9-0.3c-2.5,0.1-5,0.5-7.4,0.9c-2.6,0.4-5.1,0.8-7.6,1.3
			c-1,0.2-2.1,0.5-3.1,0.8c-2.5,0.8-5.1,1.6-7.6,2.4c-2.5,0.8-5.1,1.6-7.6,2.6c-2.8,1.2-5.5,2.6-8.2,4.1c-2.5,1.3-4.9,2.6-7.3,4.1
			c-1.6,1-3,2.2-4.5,3.3c-1.6,1.2-3.3,2.3-4.9,3.6c-1.7,1.5-3.4,3-4.9,4.7c-2.2,2.4-4.2,4.9-6.2,7.5c-2.4,3.2-4.3,6.7-5.6,10.4
			c-0.9,2.6-1.6,5.4-2.8,7.9c-1,2.1-2.5,4.1-4,6c-2,2.4-4.6,4.2-7.4,5.6c-4.2,2.1-8.5,2.9-13.1,2.3c-1.7-0.2-3.6-0.2-5.1-0.9
			c-2.4-1.1-5-2.1-7.1-3.9c-1.8-1.5-3.3-3.1-4.7-4.9C177.1,411.3,175.2,406.6,175.7,401z"/>
		<path d="M219.4,253.8c-17.1,0-31-13.9-30.9-31c0-17,13.9-30.9,30.9-30.8c17.1,0,30.9,13.9,30.9,31
			C250.3,240,236.5,253.8,219.4,253.8z"/>
		<path d="M381.7,253.8c-17,0-30.9-13.8-31-30.8c0-17.1,13.8-31,30.9-31c17,0,31,13.8,31,30.8C412.6,239.9,398.8,253.8,381.7,253.8z
			"/>
	</g>
</g>
</svg>
