<?xml version="1.0" encoding="utf-8"?>
<!-- Generator: Adobe Illustrator 18.0.0, SVG Export Plug-In . SVG Version: 6.00 Build 0)  -->
<!DOCTYPE svg PUBLIC "-//W3C//DTD SVG 1.1//EN" "http://www.w3.org/Graphics/SVG/1.1/DTD/svg11.dtd">
<svg version="1.1" id="Layer_1" xmlns="http://www.w3.org/2000/svg" xmlns:xlink="http://www.w3.org/1999/xlink" x="0px" y="0px"
	 viewBox="0 0 600 600" enable-background="new 0 0 600 600" xml:space="preserve">
<g>
	<g>
		<path d="M300.9,565.5c-8.3-0.2-16.6-0.1-24.9-0.7c-8.9-0.7-17.9-1.7-26.7-3c-16.3-2.5-32.3-6.7-47.8-12.4
			c-14.5-5.3-28.5-11.7-41.9-19.4c-17.4-9.9-33.4-21.7-48.1-35.2c-13.9-12.8-26.3-27-37.2-42.4c-12.7-17.9-23-37.2-30.9-57.7
			c-6.9-17.9-11.8-36.3-14.8-55.3c-2.2-14.4-3.3-28.9-3.1-43.5c0.3-27.8,4.8-55,13.6-81.4c8.6-25.9,20.8-49.9,36.7-72
			c13.5-18.7,29.1-35.4,46.9-50.1c14.8-12.2,30.6-22.6,47.6-31.3c15.3-7.9,31.2-14.2,47.8-19c14.9-4.3,29.9-7.3,45.3-9
			c10.9-1.2,21.8-2.2,32.7-2.9c10.2-0.7,20.3,0.4,30.4,1.7c6.5,0.8,13,1.3,19.5,2.1c12.6,1.7,25,4.3,37.2,7.8
			c11.2,3.2,22.1,7.1,32.8,11.7c10.9,4.7,21.5,10.2,31.7,16.4c11.5,6.9,22.4,14.7,32.7,23.2c12.1,10.1,23.3,21.1,33.4,33.2
			c10,11.9,19,24.6,26.8,38c9,15.6,16.5,31.9,22.2,49c4.4,13,7.7,26.2,10.1,39.7c1.7,10,2.8,20.1,3.4,30.2
			c0.7,11.8,0.6,23.6-0.3,35.4c-1.1,15-3.5,29.8-7.2,44.5c-5.2,20.8-12.8,40.8-22.8,59.8c-11.3,21.4-25.2,40.9-41.7,58.5
			c-14.9,15.9-31.5,29.7-49.8,41.5c-13.1,8.4-26.8,15.6-41.1,21.7c-13.5,5.7-27.4,10.2-41.7,13.6c-10.1,2.4-20.2,4.2-30.5,5.4
			c-12.8,1.5-25.7,2.1-38.6,1.8c-0.5,0-1,0-1.5,0C300.9,565.4,300.9,565.4,300.9,565.5z M301.3,106.1c-15.1,0.2-30,1.2-44.8,4
			c-23.2,4.4-44.8,12.8-64.8,25.2c-29.4,18.3-52.4,42.7-68.6,73.3c-19.5,37-26.2,76.3-20.3,117.7c3.5,24.2,11.3,47,23.8,68.1
			c27.2,45.9,66.6,75.7,118.2,89.6c14.3,3.8,28.9,5.7,43.7,6.1c11.6,0.4,23.2,0.4,34.8-0.5c12.7-1,25.2-3,37.4-6.5
			c37.7-10.6,69.7-30.4,94.9-60.4c37.1-44.2,51.6-95.3,43.8-152.5c-3.2-23.4-10.9-45.3-22.5-65.8c-14.5-25.7-33.8-47-58.1-63.8
			c-20.1-13.9-42.2-23.6-66-29.1C335.8,107.6,318.6,106.2,301.3,106.1z"/>
		<path d="M300.6,464c-13-1.1-24.5-2.5-35.8-5.1c-13.1-3-25.8-7.1-38-12.5c-12-5.3-23.4-11.6-34.1-19.2
			c-9.3-6.5-17.9-13.9-25.7-22.1c-15.1-16-26.4-34.3-31.9-55.8c-4.4-17.1,5.5-34.6,22.5-39.6c16.8-4.9,35.2,4.2,40,21
			c4.9,17.1,15.4,29.8,29.1,40.3c18,13.7,38.4,21.9,60.6,25.6c3.9,0.7,7.9,1.3,11.9,1.4c4.4,0.1,8.8-0.3,13.1-1
			c21.7-3.2,41.7-10.8,59.6-23.5c10-7,18.7-15.3,25.3-25.8c2.9-4.6,5-9.5,6.4-14.7c3.9-14.3,15.2-23.6,29.9-24.7
			c16.3-1.2,31.7,11.3,34.1,27.5c0.7,5.1,0.2,10.1-1.1,15c-4.3,15.9-11.9,30-22,43c-11.2,14.4-24.6,26.3-39.8,36.4
			c-15,9.9-31.1,17.6-48.1,23.2c-14.6,4.8-29.5,8.1-44.9,9.4C307.6,463.3,303.4,463.8,300.6,464z"/>
		<path d="M213.9,250.4c-18.3,0-33.2-14.8-33.3-33.1c-0.1-18.3,15-33.4,33.4-33.3c18.2,0.1,33.1,15,33.1,33.3
			C247.1,235.6,232.2,250.4,213.9,250.4z"/>
		<path d="M388.1,250.4c-18.4,0-33.1-14.8-33.1-33.1c0-18.5,14.9-33.3,33.3-33.3c18.3,0.1,33,15,33,33.3
			C421.3,235.7,406.5,250.4,388.1,250.4z"/>
	</g>
</g>
</svg>
