<?xml version="1.0" encoding="utf-8"?>
<!-- Generator: Adobe Illustrator 18.0.0, SVG Export Plug-In . SVG Version: 6.00 Build 0)  -->
<!DOCTYPE svg PUBLIC "-//W3C//DTD SVG 1.1//EN" "http://www.w3.org/Graphics/SVG/1.1/DTD/svg11.dtd">
<svg version="1.1" id="Layer_1" xmlns="http://www.w3.org/2000/svg" xmlns:xlink="http://www.w3.org/1999/xlink" x="0px" y="0px"
	 viewBox="0 0 600 600" enable-background="new 0 0 600 600" xml:space="preserve">
<g>
	<g>
		<path d="M300.9,561.5c-8.3-0.2-16.6-0.1-24.9-0.7c-8.9-0.7-17.9-1.7-26.7-3c-16.3-2.5-32.3-6.7-47.8-12.4
			c-14.5-5.3-28.5-11.7-41.9-19.4c-17.4-9.9-33.4-21.7-48.1-35.2c-13.8-12.7-26.2-26.8-37.1-42.2c-12.8-18-23.1-37.3-31.1-57.9
			c-6.9-17.9-11.8-36.3-14.8-55.3c-2.2-14.4-3.3-28.9-3.1-43.5c0.3-27.8,4.8-55,13.6-81.4c8.6-25.9,20.8-49.9,36.7-72
			c13.5-18.7,29.1-35.4,46.9-50.1c14.8-12.2,30.6-22.6,47.6-31.3c15.3-7.9,31.2-14.2,47.8-19c14.9-4.3,29.9-7.3,45.3-9
			c10.9-1.2,21.8-2.2,32.7-2.9c10.2-0.7,20.3,0.4,30.4,1.7c6.5,0.8,13,1.3,19.5,2.1c12.6,1.7,25,4.3,37.2,7.8
			c11.2,3.2,22.1,7.1,32.8,11.7c10.9,4.7,21.5,10.2,31.7,16.4c11.5,6.9,22.3,14.7,32.7,23.2c12.1,10.1,23.3,21.1,33.4,33.2
			c10,11.9,19,24.6,26.8,38c9,15.6,16.4,31.9,22.2,49c4.4,13,7.7,26.2,10.1,39.7c1.7,10,2.8,20.1,3.4,30.2
			c0.7,11.8,0.6,23.6-0.3,35.4c-1.1,15-3.5,29.8-7.2,44.5c-5.2,20.8-12.8,40.8-22.8,59.7c-11.3,21.4-25.2,40.9-41.7,58.5
			c-14.9,15.9-31.5,29.7-49.8,41.5c-13.1,8.4-26.8,15.6-41.1,21.7c-13.5,5.7-27.4,10.2-41.7,13.6c-10.1,2.4-20.2,4.2-30.5,5.4
			c-12.7,1.5-25.5,2.1-38.3,1.8c-0.6,0-1.2,0-1.8,0C300.9,561.4,300.9,561.4,300.9,561.5z M297.4,102.1c-4.5,0.3-12.7,0.6-20.8,1.3
			c-10.6,0.9-21.1,2.6-31.4,5.3c-27.6,7-52.6,19.4-74.4,37.6C128,182,104.7,228,101,283.6c-1.6,23.1,1.4,45.8,8.4,67.9
			c21.2,67.2,76.3,116.9,145.4,130.8c11.2,2.3,22.5,3.5,34,3.8c13.7,0.4,27.3,0.4,40.9-1.1c17.7-1.9,34.8-6,51.2-12.7
			c42.5-17.4,75.1-46.1,97.1-86.4c20.4-37.5,27.3-77.5,21.2-119.8c-3.4-23.2-10.9-45.1-22.4-65.6c-17.3-30.7-41.3-54.9-71.9-72.6
			c-16.4-9.5-33.9-16.3-52.4-20.5C335.7,103.6,318.5,102.2,297.4,102.1z"/>
		<path d="M300.3,460.2c-7.1-0.9-14.7-1.6-22.2-2.7c-13.1-1.9-25.8-5.3-38.2-9.8c-14.5-5.3-28.4-12-41.3-20.5
			c-9.3-6.1-18.1-12.9-26.1-20.7c-15.6-15.1-27.9-32.4-34.9-53.1c-1.8-5.3-3.5-10.5-3.5-16.2c0-19.5,16.6-34.4,35.9-32.7
			c6.7,0.6,13.5,0.4,20.2,0.4c30.1,0,60.1-0.1,90.2-0.1c47.9,0,95.9,0.1,143.8,0.1c2.7,0,5.5-0.1,8.2-0.4c17.2-1.7,33,10.9,35.3,28
			c0.6,4.5,0.3,9-0.9,13.3c-3.5,13.4-9.4,25.8-17.3,37.2c-10.6,15.5-23.8,28.3-39,39.2c-16.6,12-34.7,20.9-54.1,27.3
			c-14.5,4.8-29.3,8-44.6,9.3C308.1,459.3,304.4,459.7,300.3,460.2z"/>
		<path d="M217.9,192.6c4.5-3.6,8.1-6.9,12.2-9.5c9.1-5.8,19.1-7.9,29.6-5.7c8.6,1.8,14.4,7.3,18,15.2c2.8,6,3.2,12.3,1.6,18.6
			c-1.5,5.8-4,11.4-7.3,16.5c-5.2,8-12.1,14.1-19.9,19.4c-6.3,4.3-12.4,8.7-18.5,13.2c-3.3,2.5-6.2,5.3-9.3,8
			c-0.1,0.1-0.1,0.2-0.2,0.2c-5.2,4.4-6.9,3.8-11.1,0.1c-4.5-3.9-8.9-8.1-13.8-11.6c-5.6-4-11.2-8-16.9-11.9
			c-8.4-5.8-15.2-13-19.9-22.1c-2.5-4.9-4.5-9.9-5.2-15.4c-0.8-5.3,0.2-10.2,2.4-15.1c1.5-3.4,3.5-6.3,6.1-8.8
			c6.1-5.8,13.6-7.5,21.8-7c11.9,0.8,21.6,6,29.6,14.6C217.6,191.7,217.8,192.3,217.9,192.6z"/>
		<path d="M382.6,192.4c3.1-2.6,5.8-5.4,8.9-7.6c9.5-6.9,20.2-9.6,31.8-7.5c8.4,1.5,14.3,6.8,18.1,14.3c3.2,6.3,3.8,12.9,2.1,19.6
			c-1.5,5.8-4,11.4-7.3,16.5c-5.2,7.9-12.1,14-19.9,19.3c-6.3,4.3-12.4,8.7-18.5,13.2c-3.1,2.3-6,5-8.8,7.6
			c-5.1,4.8-7.3,4.7-12.6-0.2c-5.3-5-11-9.5-17-13.6c-6.4-4.4-12.8-8.8-18.8-13.8c-7.2-5.9-12.7-13.4-16-22.2
			c-0.9-2.4-1.8-4.7-2.4-7.2c-2.6-11,0.5-20.4,8.8-28c5.9-5.4,13.2-6.7,20.9-6.2c11.9,0.8,21.6,6,29.6,14.6
			C381.7,191.7,382.2,192.1,382.6,192.4z"/>
	</g>
</g>
</svg>
