<?xml version="1.0" encoding="utf-8"?>
<!-- Generator: Adobe Illustrator 18.0.0, SVG Export Plug-In . SVG Version: 6.00 Build 0)  -->
<!DOCTYPE svg PUBLIC "-//W3C//DTD SVG 1.1//EN" "http://www.w3.org/Graphics/SVG/1.1/DTD/svg11.dtd">
<svg version="1.1" id="Layer_1" xmlns="http://www.w3.org/2000/svg" xmlns:xlink="http://www.w3.org/1999/xlink" x="0px" y="0px"
	 viewBox="0 0 600 600" enable-background="new 0 0 600 600" xml:space="preserve">
<g>
	<g>
		<path d="M301.1,565.5c-8.3-0.2-16.6-0.1-24.9-0.7c-9-0.7-18.1-1.7-27-3c-16.3-2.4-32.1-6.7-47.5-12.3
			c-14.6-5.3-28.7-11.8-42.2-19.5c-17.3-9.9-33.2-21.6-47.9-35.1c-15.7-14.4-29.4-30.5-41.2-48.2c-13.4-20-23.8-41.4-31.4-64.3
			c-5.5-16.6-9.4-33.6-11.5-51c-1.4-11.5-2.1-22.9-2-34.5c0.2-28.2,4.7-55.7,13.6-82.6c10.1-30.5,25.3-58.3,45.5-83.4
			c16.2-20.1,35-37.5,56.3-52.2c19.5-13.4,40.4-24,62.6-32c19.6-7,39.7-11.5,60.3-13.8c9.7-1.1,19.4-1.9,29.2-2.7
			c11.2-0.9,22.2,0.2,33.3,1.5c6.6,0.8,13.2,1.3,19.8,2.2c12.5,1.7,24.8,4.3,36.9,7.8c11.1,3.2,21.9,7,32.5,11.6
			c10.6,4.6,20.8,9.8,30.7,15.7c12,7.2,23.4,15.2,34.2,24.1c12.1,10.1,23.3,21.1,33.4,33.2c10.1,12,19.1,24.7,26.9,38.3
			c8.9,15.4,16.2,31.6,21.9,48.5c4.4,13,7.7,26.2,10.1,39.7c1.7,10.1,2.9,20.3,3.5,30.5c0.7,11.2,0.6,22.4-0.2,33.7
			c-1,15.5-3.5,30.8-7.3,45.9c-5.2,20.7-12.7,40.6-22.6,59.5c-11.3,21.6-25.3,41.2-42,59c-14.9,15.9-31.5,29.7-49.9,41.5
			c-13.1,8.4-26.8,15.6-41.1,21.6c-13.5,5.7-27.4,10.2-41.7,13.6c-10.3,2.5-20.6,4.3-31.1,5.5C327.2,565,314.2,565.6,301.1,565.5z
			 M301.1,490.2c5.4,0,10.8,0.3,16.1-0.1c11.7-0.8,23.3-2.1,34.8-4.8c35.7-8.3,66.8-25,92.7-50.9c33.7-33.6,52.3-74.4,56.2-121.8
			c1.7-21.1-0.2-41.9-5.6-62.4c-9.6-36.7-28.3-68-56.3-93.5c-35.1-32-76.8-48.1-124.1-50.3c-12.8-0.6-25.6-0.4-38.3,0.8
			c-13.7,1.3-27.2,3.8-40.4,7.8c-27.9,8.6-52.7,22.7-73.9,42.6c-34.7,32.5-54.8,72.5-60.3,119.8c-2.7,23.4-1.1,46.7,5.1,69.4
			c14.3,52.3,45,92,92.1,118.9c19.6,11.2,40.7,18.3,63,21.9C275,489.7,288,490.6,301.1,490.2z"/>
		<path d="M334.1,394.1c-5.9,0-11.9,0-17.8,0c-5.4,0-10.7,0.1-16.1,0.1c-5.6,0-11.3-0.1-16.9-0.1c-2.7,0-5.4,0-8.2,0
			c-7.8,0-15.6,0.1-23.4,0.1c-6.3,0-12.6,0-19-0.1c-7.7-0.1-15.4-0.2-23-0.2c-2.4,0-4.9,0-7.3,0c-7.8,0.1-15.5,0.2-23.3,0.2
			c-5.7,0-11.2-1-16.1-4.4c-6.1-4.3-9.7-10-10.8-17.3c-1.1-7.4,0.8-14.1,5.7-19.9c5.6-6.6,12.9-9.1,21.3-9c2.9,0,5.8,0.2,8.7,0.2
			c7.9,0,15.8-0.2,23.6-0.2c7.6,0,15.1,0.2,22.7,0.2c5.5,0,11.1-0.1,16.6-0.1c5.3,0,10.7,0.1,16,0.2c5.5,0,11.1-0.1,16.6-0.1
			c5.5,0,11.1,0.1,16.6,0.1c2.5,0,5.1,0,7.6,0c7.9,0,15.8-0.1,23.7-0.1c9.7,0,19.5,0.1,29.2,0.2c7.7,0,15.4-0.1,23.1-0.1
			c9.9,0,19.9,0.1,29.8,0.1c5,0,9.9,0.1,14.9-0.1c9-0.2,16.3,3.2,21.5,10.3c6.2,8.4,6.7,19.5,0.6,28.8c-4.5,6.8-11,10.4-18.9,11.2
			c-4.7,0.4-9.5,0.1-14.3,0.1c-5.5,0-10.9-0.1-16.4-0.1c-8.2,0-16.4-0.1-24.5-0.1c-5.1,0-10.1,0-15.2,0c-6.1,0-12.3-0.1-18.4-0.1
			C340,394.1,337,394.1,334.1,394.1C334.1,394.1,334.1,394.1,334.1,394.1z"/>
		<path d="M214,250.4c-18.3,0-33.2-14.7-33.3-33c-0.1-18.2,14.8-33.3,33-33.4c18.4-0.1,33.5,14.8,33.5,33.2
			C247.1,235.5,232.3,250.4,214,250.4z"/>
		<path d="M388.3,250.4c-18.4,0.1-33.2-14.6-33.3-33c-0.1-18.4,14.6-33.3,32.9-33.4c18.4-0.1,33.4,14.7,33.5,33.2
			C421.4,235.5,406.7,250.3,388.3,250.4z"/>
	</g>
</g>
</svg>
