<?xml version="1.0" encoding="utf-8"?>
<!-- Generator: Adobe Illustrator 16.0.0, SVG Export Plug-In . SVG Version: 6.00 Build 0)  -->
<!DOCTYPE svg PUBLIC "-//W3C//DTD SVG 1.0//EN" "http://www.w3.org/TR/2001/REC-SVG-20010904/DTD/svg10.dtd">
<svg version="1.0" id="Layer_1" xmlns="http://www.w3.org/2000/svg" xmlns:xlink="http://www.w3.org/1999/xlink" x="0px" y="0px"
	 width="32px" height="32px" viewBox="0 0 32 32" enable-background="new 0 0 32 32" xml:space="preserve">
<g>
	<circle fill="#EF4D4D" cx="16.042" cy="16" r="16"/>
	<path opacity="0.15" d="M16.042,32c8.837,0,16-7.163,16-16s-7.163-16-16-16s-16,7.163-16,16S7.205,32,16.042,32z M16.042,2
		c7.732,0,14,6.268,14,14s-6.268,14-14,14s-14-6.268-14-14S8.31,2,16.042,2z"/>
	<path fill="#FFFFFF" d="M25.042,16c0,1.104-0.896,2-2,2h-14c-1.104,0-2-0.896-2-2l0,0c0-1.104,0.896-2,2-2h14
		C24.146,14,25.042,14.896,25.042,16L25.042,16z"/>
</g>
<g>
</g>
<g>
</g>
<g>
</g>
<g>
</g>
<g>
</g>
<g>
</g>
</svg>
